<mxfile host="app.diagrams.net" agent="Mozilla/5.0 (Windows NT 10.0; Win64; x64) AppleWebKit/537.36 (KHTML, like Gecko) Chrome/123.0.0.0 Safari/537.36 OPR/109.0.0.0" version="24.7.6">
  <diagram name="P치gina-1" id="OHFUQDM_YiPGnvA8z5ip">
    <mxGraphModel dx="1009" dy="621" grid="1" gridSize="10" guides="1" tooltips="1" connect="1" arrows="1" fold="1" page="1" pageScale="1" pageWidth="827" pageHeight="1169" math="0" shadow="0">
      <root>
        <mxCell id="0" />
        <mxCell id="1" parent="0" />
        <mxCell id="oC8m182-4YRUJQs8IAur-1" value="SISTEMA DE VENTAS" style="shape=umlFrame;whiteSpace=wrap;html=1;pointerEvents=0;recursiveResize=0;container=1;collapsible=0;width=160;" vertex="1" parent="1">
          <mxGeometry x="240" y="240" width="450" height="400" as="geometry" />
        </mxCell>
        <mxCell id="oC8m182-4YRUJQs8IAur-8" value="Registrar Usuario" style="ellipse;html=1;whiteSpace=wrap;fillColor=#ffe6cc;strokeColor=#d79b00;" vertex="1" parent="oC8m182-4YRUJQs8IAur-1">
          <mxGeometry x="40" y="40" width="120" height="80" as="geometry" />
        </mxCell>
        <mxCell id="oC8m182-4YRUJQs8IAur-12" value="Iniciar Sesi칩n" style="ellipse;html=1;whiteSpace=wrap;fillColor=#ffe6cc;strokeColor=#d79b00;" vertex="1" parent="oC8m182-4YRUJQs8IAur-1">
          <mxGeometry x="40" y="160" width="120" height="80" as="geometry" />
        </mxCell>
        <mxCell id="oC8m182-4YRUJQs8IAur-15" value="&amp;lt;&amp;lt;include&amp;gt;&amp;gt;" style="html=1;verticalAlign=bottom;labelBackgroundColor=none;endArrow=open;endFill=0;dashed=1;rounded=0;exitX=0.5;exitY=0;exitDx=0;exitDy=0;entryX=0.5;entryY=1;entryDx=0;entryDy=0;" edge="1" parent="oC8m182-4YRUJQs8IAur-1" source="oC8m182-4YRUJQs8IAur-12" target="oC8m182-4YRUJQs8IAur-8">
          <mxGeometry x="-0.5" width="160" relative="1" as="geometry">
            <mxPoint x="80" y="230" as="sourcePoint" />
            <mxPoint x="240" y="230" as="targetPoint" />
            <mxPoint as="offset" />
          </mxGeometry>
        </mxCell>
        <mxCell id="oC8m182-4YRUJQs8IAur-17" value="Enviar Corre Cuenta" style="ellipse;html=1;whiteSpace=wrap;fillColor=#ffe6cc;strokeColor=#d79b00;" vertex="1" parent="oC8m182-4YRUJQs8IAur-1">
          <mxGeometry x="230" y="20" width="120" height="50" as="geometry" />
        </mxCell>
        <mxCell id="oC8m182-4YRUJQs8IAur-16" value="Contrase침a" style="ellipse;html=1;whiteSpace=wrap;fillColor=#ffe6cc;strokeColor=#d79b00;" vertex="1" parent="oC8m182-4YRUJQs8IAur-1">
          <mxGeometry x="230" y="110" width="120" height="50" as="geometry" />
        </mxCell>
        <mxCell id="oC8m182-4YRUJQs8IAur-21" value="&amp;lt;&amp;lt;include&amp;gt;&amp;gt;" style="html=1;verticalAlign=bottom;labelBackgroundColor=none;endArrow=open;endFill=0;dashed=1;rounded=0;exitX=1;exitY=0.5;exitDx=0;exitDy=0;entryX=0;entryY=0.5;entryDx=0;entryDy=0;" edge="1" parent="oC8m182-4YRUJQs8IAur-1" source="oC8m182-4YRUJQs8IAur-8" target="oC8m182-4YRUJQs8IAur-17">
          <mxGeometry x="0.0286" y="-9" width="160" relative="1" as="geometry">
            <mxPoint x="190" y="80" as="sourcePoint" />
            <mxPoint x="190" y="40" as="targetPoint" />
            <mxPoint as="offset" />
          </mxGeometry>
        </mxCell>
        <mxCell id="oC8m182-4YRUJQs8IAur-22" value="&amp;lt;&amp;lt;include&amp;gt;&amp;gt;" style="html=1;verticalAlign=bottom;labelBackgroundColor=none;endArrow=open;endFill=0;dashed=1;rounded=0;exitX=0.5;exitY=0;exitDx=0;exitDy=0;entryX=0.5;entryY=1;entryDx=0;entryDy=0;" edge="1" parent="oC8m182-4YRUJQs8IAur-1">
          <mxGeometry x="-0.5" width="160" relative="1" as="geometry">
            <mxPoint x="289.5" y="110" as="sourcePoint" />
            <mxPoint x="289.5" y="70" as="targetPoint" />
            <mxPoint as="offset" />
          </mxGeometry>
        </mxCell>
        <mxCell id="oC8m182-4YRUJQs8IAur-23" value="&amp;lt;&amp;lt;include&amp;gt;&amp;gt;" style="html=1;verticalAlign=bottom;labelBackgroundColor=none;endArrow=open;endFill=0;dashed=1;rounded=0;exitX=1;exitY=0;exitDx=0;exitDy=0;entryX=0;entryY=0.5;entryDx=0;entryDy=0;" edge="1" parent="oC8m182-4YRUJQs8IAur-1" source="oC8m182-4YRUJQs8IAur-12" target="oC8m182-4YRUJQs8IAur-16">
          <mxGeometry x="-0.5" width="160" relative="1" as="geometry">
            <mxPoint x="130" y="190" as="sourcePoint" />
            <mxPoint x="130" y="150" as="targetPoint" />
            <mxPoint as="offset" />
          </mxGeometry>
        </mxCell>
        <mxCell id="oC8m182-4YRUJQs8IAur-24" value="Actualizar Contrase침a" style="ellipse;html=1;whiteSpace=wrap;fillColor=#d5e8d4;strokeColor=#82b366;" vertex="1" parent="oC8m182-4YRUJQs8IAur-1">
          <mxGeometry x="230" y="190" width="120" height="50" as="geometry" />
        </mxCell>
        <mxCell id="oC8m182-4YRUJQs8IAur-25" value="&amp;lt;&amp;lt;extend&amp;gt;&amp;gt;" style="html=1;verticalAlign=bottom;labelBackgroundColor=none;endArrow=open;endFill=0;dashed=1;rounded=0;exitX=1;exitY=0.5;exitDx=0;exitDy=0;entryX=0;entryY=0.5;entryDx=0;entryDy=0;" edge="1" parent="oC8m182-4YRUJQs8IAur-1" source="oC8m182-4YRUJQs8IAur-12" target="oC8m182-4YRUJQs8IAur-24">
          <mxGeometry width="160" relative="1" as="geometry">
            <mxPoint x="80" y="230" as="sourcePoint" />
            <mxPoint x="240" y="230" as="targetPoint" />
          </mxGeometry>
        </mxCell>
        <mxCell id="oC8m182-4YRUJQs8IAur-9" style="rounded=0;orthogonalLoop=1;jettySize=auto;html=1;" edge="1" parent="1" source="oC8m182-4YRUJQs8IAur-2" target="oC8m182-4YRUJQs8IAur-8">
          <mxGeometry relative="1" as="geometry" />
        </mxCell>
        <mxCell id="oC8m182-4YRUJQs8IAur-2" value="Administrador Plataforma" style="shape=umlActor;verticalLabelPosition=bottom;verticalAlign=top;html=1;" vertex="1" parent="1">
          <mxGeometry x="130" y="320" width="30" height="60" as="geometry" />
        </mxCell>
        <mxCell id="oC8m182-4YRUJQs8IAur-11" style="rounded=0;orthogonalLoop=1;jettySize=auto;html=1;entryX=0;entryY=1;entryDx=0;entryDy=0;" edge="1" parent="1" source="oC8m182-4YRUJQs8IAur-3" target="oC8m182-4YRUJQs8IAur-8">
          <mxGeometry relative="1" as="geometry" />
        </mxCell>
        <mxCell id="oC8m182-4YRUJQs8IAur-3" value="analista TI&lt;div&gt;&lt;br&gt;&lt;/div&gt;" style="shape=umlActor;verticalLabelPosition=bottom;verticalAlign=top;html=1;" vertex="1" parent="1">
          <mxGeometry x="130" y="420" width="30" height="60" as="geometry" />
        </mxCell>
        <mxCell id="oC8m182-4YRUJQs8IAur-30" style="rounded=0;orthogonalLoop=1;jettySize=auto;html=1;entryX=0;entryY=1;entryDx=0;entryDy=0;" edge="1" parent="1" source="oC8m182-4YRUJQs8IAur-26" target="oC8m182-4YRUJQs8IAur-12">
          <mxGeometry relative="1" as="geometry" />
        </mxCell>
        <mxCell id="oC8m182-4YRUJQs8IAur-26" value="Base de datos MySQL" style="shape=datastore;whiteSpace=wrap;html=1;fillColor=#e1d5e7;strokeColor=#9673a6;" vertex="1" parent="1">
          <mxGeometry x="112.5" y="530" width="65" height="65" as="geometry" />
        </mxCell>
        <mxCell id="oC8m182-4YRUJQs8IAur-29" style="rounded=0;orthogonalLoop=1;jettySize=auto;html=1;entryX=0.85;entryY=0.05;entryDx=0;entryDy=0;entryPerimeter=0;" edge="1" parent="1" source="oC8m182-4YRUJQs8IAur-8" target="oC8m182-4YRUJQs8IAur-26">
          <mxGeometry relative="1" as="geometry" />
        </mxCell>
        <mxCell id="oC8m182-4YRUJQs8IAur-31" style="rounded=0;orthogonalLoop=1;jettySize=auto;html=1;entryX=1;entryY=0.5;entryDx=0;entryDy=0;" edge="1" parent="1" source="oC8m182-4YRUJQs8IAur-24" target="oC8m182-4YRUJQs8IAur-26">
          <mxGeometry relative="1" as="geometry" />
        </mxCell>
      </root>
    </mxGraphModel>
  </diagram>
</mxfile>
